<?xml version="1.0" encoding="utf-8"?>
<!-- Generator: Adobe Illustrator 23.1.1, SVG Export Plug-In . SVG Version: 6.00 Build 0)  -->
<svg version="1.1" id="Ebene_1" xmlns="http://www.w3.org/2000/svg" xmlns:xlink="http://www.w3.org/1999/xlink" x="0px" y="0px"
	 viewBox="0 0 253 87.8" style="enable-background:new 0 0 253 87.8;" xml:space="preserve">
<style type="text/css">
	.st0{fill:#007E36;}
	.st1{fill:#017E41;}
	.st2{fill:#FFFFFF;}
</style>
<polygon class="st0" points="247,49.6 240.4,70.3 233.3,49.6 227.1,49.6 227.1,75.5 231.3,75.5 231.3,55.8 237.9,75.5 242.3,75.5 
	248.8,55.8 248.8,75.5 253,75.5 253,49.6 "/>
<g>
	<g>
		<g>
			<path class="st0" d="M222.1,65.1V49.6h-4.8v16c0,4.3-1.9,6.9-5.8,6.9c-4,0-5.9-2.8-5.9-6.9v-16h-4.8v15.5
				c0,8.9,5.2,10.9,10.8,10.9C216.8,76,222.1,73.4,222.1,65.1"/>
		</g>
	</g>
</g>
<rect x="176.2" y="49.6" class="st0" width="4.8" height="25.8"/>
<polygon class="st0" points="199.5,75.5 186.4,61.3 198.1,49.6 192.1,49.6 181,61.7 193.4,75.5 "/>
<rect x="164.7" y="49.6" class="st0" width="4.8" height="25.8"/>
<polygon class="st0" points="157.9,75.5 157.9,49.6 153.2,49.6 153.2,68.9 142.4,49.6 136.1,49.6 136.1,75.5 140.9,75.5 140.9,56.2 
	151.6,75.5 "/>
<rect x="124.6" y="49.6" class="st0" width="4.8" height="25.8"/>
<polygon class="st0" points="121.8,75.5 121.8,71.6 109,71.6 109,49.6 104.2,49.6 104.2,75.5 "/>
<rect x="79.3" y="49.6" class="st0" width="4.8" height="25.8"/>
<polygon class="st0" points="102.7,75.5 89.6,61.3 101.2,49.6 95.2,49.6 84.1,61.7 96.6,75.5 "/>
<rect y="8.1" class="st1" width="71.1" height="71.1"/>
<rect y="8.1" class="st0" width="71.1" height="71.1"/>
<polygon class="st2" points="4,49.6 6.5,49.6 6.5,73.5 13.8,73.5 13.8,75.4 4,75.4 "/>
<g>
	<g>
		<g>
			<path class="st2" d="M28.3,69.6c0,0.2,0.1,0.3,0.3,0.3c0.1,0,0.2-0.1,0.2-0.3c0.2-1.7,0.5-3.5,0.9-5.5s0.7-3.9,1.1-5.8
				c0.4-1.9,0.7-3.6,1-5.2c0.3-1.5,0.6-2.7,0.8-3.5h8.3v25.8h-5V53.7c0-0.1-0.1-0.2-0.3-0.2c-0.1,0-0.2,0.1-0.2,0.2
				c-0.2,1-0.4,2.2-0.7,3.4c-0.2,1.2-0.5,2.7-0.8,4.4s-0.7,3.7-1.2,5.9c-0.5,2.3-1,4.9-1.7,8h-5.2c-0.6-3-1.2-5.6-1.6-7.8
				c-0.5-2.2-0.8-4.1-1.2-5.8c-0.3-1.7-0.6-3.1-0.9-4.4c-0.2-1.3-0.5-2.5-0.8-3.8c0-0.1-0.1-0.2-0.3-0.2c-0.1,0-0.1,0.1-0.1,0.2
				v21.7h-4.6V49.6h8.3c0.1,0.6,0.3,1.3,0.5,2.2s0.4,1.9,0.6,3s0.4,2.3,0.7,3.5c0.2,1.3,0.5,2.5,0.7,3.9c0.2,1.3,0.4,2.6,0.6,3.8
				C28,67.3,28.2,68.5,28.3,69.6"/>
		</g>
	</g>
	<g>
		<g>
			<path class="st2" d="M43.9,65.6v-16h8.9v16.8c0,1.2,0.3,2,0.8,2.6c0.5,0.5,1.3,0.8,2.2,0.8s1.7-0.2,2.2-0.8
				c0.6-0.5,0.8-1.4,0.8-2.6V49.6h8.8v16c0,1.9-0.3,3.5-0.9,4.9c-0.6,1.3-1.4,2.4-2.4,3.3c-1,0.8-2.3,1.4-3.8,1.8s-3.1,0.6-4.8,0.6
				s-3.3-0.2-4.8-0.6s-2.7-1-3.8-1.8c-1-0.8-1.9-1.9-2.5-3.3C44.2,69.1,43.9,67.5,43.9,65.6"/>
		</g>
	</g>
</g>
</svg>
